<?xml version="1.0" encoding="utf-8"?>
<!-- Generator: Adobe Illustrator 17.0.0, SVG Export Plug-In . SVG Version: 6.00 Build 0)  -->
<!DOCTYPE svg PUBLIC "-//W3C//DTD SVG 1.1//EN" "http://www.w3.org/Graphics/SVG/1.1/DTD/svg11.dtd">
<svg version="1.1" id="Capa_1" xmlns="http://www.w3.org/2000/svg" xmlns:xlink="http://www.w3.org/1999/xlink" x="0px" y="0px"
	 width="200px" height="200px" viewBox="0 0 200 200" enable-background="new 0 0 200 200" xml:space="preserve">
<path d="M172.1,186.036c-0.551-0.031-1.12-0.058-1.676-0.088c1.015-2.168-0.305-5.214-2.704-5.789
	c-7.037-1.686-14.286-0.814-21.544-2.936c-11.649-3.407-22.494-9.63-32.503-16.366c-19.773-13.308-40.889-37.923-13.546-55.381
	c3.235-2.065,2.296-8.237-2.114-7.805c-6.862,0.672-13.735,1.037-20.617,1.422c3.641-2.03,6.595-6.777,8.881-9.586
	c4.616-5.673,9.92-7.941,17.223-8.378c4.58-0.274,5.258-6.247,1.054-7.789c-0.793-0.291-1.562-1.488-2.307-2.003
	c-1.762-1.217-3.568-2.166-5.52-3.043c-1.806-0.811-3.654-1.52-5.506-2.22c9.174-3.172,14.94-14.121,25.999-14.603
	c4.021-0.175,5.799-4.707,3.175-7.664c-2.812-3.169-4.911-6.461-7.238-9.597c5.762-0.278,11.512-0.014,17.274,0.899
	c1.959,0.311,3.627-2.564,1.476-3.501c-8.621-3.755-17.998-4.177-27.174-5.557c-5.253-0.79-7.926,5.271-3.57,8.468
	c3.496,2.566,5.817,5.983,8.173,9.419c-3.688,1.118-7.12,2.82-10.518,5.312c-4.978,3.651-11.142,7.456-14.769,12.448
	c-1.193,1.643-0.201,3.955,1.464,4.836c0.071,0.416,0.284,0.804,0.71,1.048c2.254,1.291,4.55,2.506,6.808,3.791
	c0.47,0.267,2.081,1.241,3.599,2.245c-5.378,0.787-10.234,2.791-14.55,6.821c-2.292,2.14-4.187,4.717-6.255,7.065
	c-2.64,2.998-5.625,4.715-6.17,8.869c-0.28,2.135,1.891,3.466,3.663,3.663c0.311,0.035,0.603-0.04,0.906-0.053
	c-1.42,1.463-0.82,4.416,1.838,4.566c3.452,0.195,6.901,0.384,10.348,0.6c-16.425,15.953-7.141,38.103,10.365,54.501
	c6.41,6.003,20.873,17.088,35.81,24.365c-47.961-3.255-100.013-12.993-115.388-63.405c-8.916-29.237,5.859-60.991,26.015-81.686
	C53.841,28.01,67.452,20.786,82.211,17.441c17.589-3.987,31.45,4.009,46.796,10.896c3.886,1.744,7.726-2.658,4.643-6.017
	C112.073-1.189,75.065,4.29,50.638,19.428C21.953,37.204,4.319,70.926,3.581,104.193C2.815,138.754,29.55,169.2,60.138,181.905
	c35.73,14.841,74.138,13.573,111.962,11.39C176.775,193.025,176.78,186.297,172.1,186.036z"/>
<path d="M194.369,172.553c-3.537-8.062-9.55-14.944-16.541-20.914c0.069-13.848,0.241-27.701,0.12-41.548
	c-0.004-0.491-0.062-0.947-0.157-1.374c0.505-5.207,0.115-10.28-0.791-15.361c0.007-0.004,0.014-0.01,0.022-0.014
	c3.288-0.888,5.952-3.548,8.558-5.629c2.091-1.67,4.202-3.364,6.173-5.189c0.4-0.323,0.777-0.675,1.144-1.028
	c5.703-5.495-2.95-14.114-8.667-8.667c-0.853,0.813-1.765,1.561-2.678,2.305c-0.604,0.492-1.217,0.973-1.829,1.455
	c-0.325,0.255-0.651,0.509-0.977,0.762c0.884-0.687-0.743,0.565-0.732,0.556c-1.291,0.985-2.71,1.927-4.036,2.962
	c-0.927-3.188-2.101-6.546-3.88-9.19c1.459-0.684,2.863-1.44,4.116-2.319c5.209-3.655,9.775-9.981,7.282-16.646
	c-1.466-3.919-4.278-6.704-7.806-8.872c-0.776-0.477-1.64-0.915-2.493-1.356c-0.505-0.885-1.068-1.743-1.771-2.53
	c-0.337-0.378-0.678-0.667-1.017-0.977c0.13-1.038-0.491-2.164-1.796-2.113c-0.547,0.021-1.083,0.011-1.622,0.007
	c-1.389-0.453-2.766-0.455-4.112-0.124c-4.358-0.183-8.451-0.13-12.278,3.292c-2.564,2.292-3.698,5.243-3.724,8.404
	c-3.591,8.506-4.564,18.994,4.624,23.883c1.495,0.796,3.117,1.283,4.779,1.619c-0.957,3.256-1.678,6.536-2.252,9.843
	c-5.97,1.315-12.163,4.708-17.203,6.763c-7.398,2.304-4.32,13.736,3.208,11.636c4.257-1.188,8.347-2.906,12.452-4.534
	c-0.185,3.192-0.29,6.418-0.331,9.692c-0.009,0.713,0.201,1.507,0.523,2.258c-1.064,3.259-2.164,6.959-2.88,10.592
	c-0.954,3.317-1.924,6.629-2.97,9.919c-10.115-5.526-23.477-11.295-32.159-5.565c-0.026-0.034-0.054-0.066-0.08-0.1
	c-3.161-4.205-9.775-0.658-7.196,4.207c16.198,30.56,48.326,47.698,81.385,53.771C192.904,183.554,196.793,178.077,194.369,172.553z
	 M122.042,135.416c1.134,0.25,2.318,0.63,3.481,0.951c-0.143,0.894-0.006,1.829,0.478,2.641c0.109,0.182,0.249,0.346,0.361,0.525
	C124.901,138.195,123.445,136.849,122.042,135.416z M155.258,136.12c0.326-0.207,0.636-0.464,0.914-0.798
	c2.079-2.497,2.571-5.361,2.984-8.387c1.848-3.881,3.458-7.842,4.805-11.881c0.754,0.102,1.526,0.161,2.291,0.237
	c-0.036,9.243,0.003,18.487,0.067,27.731C162.622,140.549,158.879,138.256,155.258,136.12z"/>
</svg>
